<svg width="233" height="233" viewBox="0 0 233 233" fill="none" xmlns="http://www.w3.org/2000/svg">
<rect width="233" height="233" fill="url(#paint0_linear_2937_103)"/>
<rect width="233" height="233" fill="black" fill-opacity="0.85"/>
<path d="M47.8572 25.5569H51.4781V48.9941H48.7789V41.489C48.7789 36.5513 48.8118 32.5683 48.8777 29.5399C48.351 30.9883 47.6597 32.7658 46.8039 34.8725L41.0104 48.9941H38.6403L32.8139 34.8725C31.9581 32.7658 31.2668 30.9883 30.7401 29.5399C30.806 32.5683 30.8389 36.5513 30.8389 41.489V48.9941H28.1396V25.5569H31.7606L37.1919 38.8885C37.96 40.7318 38.8488 42.9812 39.8583 45.6366L40.2862 44.5174C40.4618 44.0785 40.7909 43.2007 41.2737 41.884C41.7785 40.5673 42.2283 39.4371 42.6233 38.4935L47.8572 25.5569ZM70.8105 48.9941H68.0454V31.5149H62.7128V29.3424L63.2395 29.3095C64.3148 29.2436 65.2035 29.101 65.9058 28.8815C66.608 28.6402 67.1786 28.2561 67.6175 27.7294C68.0564 27.2028 68.3746 26.4786 68.5721 25.5569H70.8105V48.9941ZM84.4522 40.8964H74.9391V38.5264H84.4522V40.8964ZM96.5705 49.5537C93.7615 49.5537 91.6438 48.5004 90.2174 46.3937C88.791 44.265 88.0778 41.2256 88.0778 37.2755C88.0778 33.3254 88.791 30.297 90.2174 28.1903C91.6438 26.0616 93.7615 24.9973 96.5705 24.9973C99.3795 24.9973 101.497 26.0616 102.924 28.1903C104.35 30.297 105.063 33.3254 105.063 37.2755C105.063 41.2256 104.35 44.265 102.924 46.3937C101.497 48.5004 99.3795 49.5537 96.5705 49.5537ZM96.5705 47.052C98.3919 47.052 99.7745 46.24 100.718 44.6161C101.684 42.9702 102.166 40.5234 102.166 37.2755C102.166 34.0277 101.684 31.5918 100.718 29.9678C99.7745 28.3219 98.3919 27.499 96.5705 27.499C94.7491 27.499 93.3555 28.3219 92.39 29.9678C91.4463 31.5918 90.9745 34.0277 90.9745 37.2755C90.9745 40.5234 91.4463 42.9702 92.39 44.6161C93.3555 46.24 94.7491 47.052 96.5705 47.052ZM120.557 36.5184C121.742 37.1329 122.685 37.9339 123.388 38.9214C124.112 39.887 124.474 41.0501 124.474 42.4106C124.474 43.8151 124.134 45.055 123.454 46.1303C122.773 47.2056 121.819 48.0395 120.59 48.632C119.383 49.2246 117.989 49.5208 116.409 49.5208C114.654 49.5208 113.161 49.2136 111.932 48.5991C110.703 47.9627 109.771 47.074 109.134 45.9328C108.498 44.7697 108.191 43.4311 108.213 41.9169H110.945C110.989 43.5847 111.483 44.8575 112.426 45.7353C113.37 46.5912 114.697 47.0191 116.409 47.0191C117.441 47.0191 118.34 46.8326 119.108 46.4595C119.898 46.0864 120.502 45.5597 120.919 44.8795C121.358 44.1772 121.577 43.3543 121.577 42.4106C121.577 41.467 121.358 40.6441 120.919 39.9418C120.502 39.2396 119.887 38.7019 119.076 38.3289C118.264 37.9339 117.32 37.7364 116.245 37.7364H114.5V35.4321H116.08C117.638 35.4321 118.834 35.081 119.668 34.3788C120.524 33.6765 120.952 32.7 120.952 31.4491C120.952 30.2202 120.524 29.2656 119.668 28.5853C118.834 27.8831 117.693 27.5319 116.245 27.5319C114.818 27.5319 113.655 27.905 112.755 28.6511C111.878 29.3753 111.406 30.4945 111.34 32.0087H108.575C108.575 30.6262 108.882 29.4082 109.497 28.3549C110.111 27.3015 111 26.4895 112.163 25.919C113.326 25.3265 114.687 25.0302 116.245 25.0302C117.715 25.0302 119.01 25.2826 120.129 25.7873C121.27 26.2701 122.159 26.9943 122.795 27.9599C123.432 28.9035 123.75 30.0446 123.75 31.3833C123.75 32.5464 123.465 33.5558 122.894 34.4117C122.345 35.2675 121.566 35.9698 120.557 36.5184Z" fill="#E0E1E4"/>
<path opacity="0.9" d="M0 117H233" stroke="#E0E1E4"/>
<g opacity="0.8">
<path fill-rule="evenodd" clip-rule="evenodd" d="M80.9543 206.699C79.4265 206.699 78.0052 206.331 76.7095 205.587C75.4138 204.842 74.3792 203.837 73.625 202.56C72.8708 201.284 72.4937 199.882 72.4937 198.354C72.4937 196.826 72.8708 195.415 73.625 194.138C74.3792 192.862 75.4041 191.856 76.7095 191.112C78.0052 190.367 79.4265 190 80.9543 190H81.022C82.5497 190 83.9614 190.377 85.2474 191.112C86.5334 191.847 87.5584 192.862 88.3126 194.138C89.0668 195.415 89.4439 196.817 89.4439 198.354C89.4439 199.892 89.0668 201.284 88.3126 202.56C87.5584 203.837 86.5334 204.842 85.2474 205.587C83.9614 206.331 82.5497 206.699 81.022 206.699H80.9543ZM81.022 203.672C81.9696 203.672 82.8591 203.431 83.6713 202.937C84.4836 202.444 85.1217 201.797 85.5859 200.984C86.05 200.172 86.282 199.292 86.282 198.345C86.282 197.397 86.05 196.507 85.5859 195.695C85.1217 194.883 84.4836 194.235 83.6713 193.742C82.8591 193.259 81.9792 193.007 81.022 193.007H80.9543C79.9777 193.007 79.0881 193.249 78.2759 193.723C77.4637 194.196 76.8255 194.844 76.3614 195.657C75.8973 196.469 75.6652 197.358 75.6652 198.335C75.6652 199.312 75.8973 200.191 76.3614 200.994C76.8255 201.797 77.4637 202.435 78.2759 202.928C79.0881 203.411 79.9777 203.663 80.9543 203.663H81.022V203.672ZM47.9891 206.351V190.338H51.1219V206.351H47.9891ZM99.2996 203.221C99.2996 205.132 97.7316 206.7 95.8134 206.7C93.8953 206.7 92.3418 205.132 92.3418 203.221C92.3418 201.31 93.9099 199.742 95.8134 199.742C97.717 199.742 99.2996 201.31 99.2996 203.221ZM99.0152 203.221C99.0152 201.456 97.5857 200.012 95.828 200.012C94.0703 200.012 92.6262 201.449 92.6262 203.221C92.6262 204.993 94.063 206.43 95.828 206.43C97.593 206.43 99.0152 204.993 99.0152 203.221ZM96.1416 203.44L97.3596 205.219H96.9949L95.7988 203.44H94.9163V205.219H94.5954V201.208H96.0249C96.6886 201.208 97.1846 201.682 97.1846 202.316C97.1846 202.951 96.7616 203.389 96.1416 203.44ZM94.9163 203.155H96.0176C96.5136 203.155 96.8783 202.805 96.8783 202.324C96.8783 201.842 96.5136 201.514 96.0176 201.514H94.909V203.155H94.9163ZM59.3664 205.326C60.6041 206.012 62.0158 206.351 63.5919 206.351H69.7222V203.498H63.7756C62.7797 203.498 61.8901 203.276 61.0972 202.821C60.314 202.367 59.6952 201.748 59.2407 200.975C58.7863 200.191 58.5639 199.321 58.5639 198.345C58.5639 197.368 58.7863 196.488 59.2407 195.695C59.6855 194.902 60.3043 194.293 61.0972 193.848C61.8804 193.413 62.7797 193.191 63.7756 193.191H69.7222V190.338H63.5919C62.0158 190.338 60.6041 190.677 59.3664 191.363C58.1288 192.05 57.1618 192.997 56.4463 194.216C55.7308 195.434 55.3827 196.807 55.3827 198.345C55.3827 199.882 55.7404 201.255 56.4463 202.473C57.1522 203.692 58.1288 204.639 59.3664 205.326ZM30 190.338V206.351H33.0265V193.191H44.3395V190.338H30Z" fill="#E0E1E4"/>
</g>
<defs>
<linearGradient id="paint0_linear_2937_103" x1="116.5" y1="233" x2="116.5" y2="1.59217e-06" gradientUnits="userSpaceOnUse">
<stop stop-color="#121212"/>
<stop offset="1" stop-color="#686A6E"/>
</linearGradient>
</defs>
</svg>
